<svg xmlns="http://www.w3.org/2000/svg" viewBox="0 0 482.4 517.71"><defs><style>.cls-1{fill:#fff;}.cls-2{fill:#f16b81;}</style></defs><title>Asset 1UI</title><g id="Layer_2" data-name="Layer 2"><g id="Layer_2-2" data-name="Layer 2"><rect class="cls-1" x="12.39" y="178.82" width="470" height="338.89" rx="14.44"/><polygon class="cls-1" points="127.61 88.59 107.93 153.88 150.07 141.79 169.75 76.5 127.61 88.59"/><polygon class="cls-1" points="206.95 65.83 187.27 131.12 241.26 115.64 260.94 50.34 206.95 65.83"/><polygon class="cls-1" points="298.14 39.67 278.45 104.97 319.38 93.22 339.06 27.93 298.14 39.67"/><polygon class="cls-1" points="376.26 17.26 356.58 82.55 391.25 72.61 410.93 7.32 376.26 17.26"/><polygon class="cls-1" points="59.43 108.15 39.75 173.44 70.73 164.55 90.41 99.26 59.43 108.15"/><path class="cls-1" d="M10.47,122.19A14.45,14.45,0,0,0,.56,140.06L8,166l14.22-47.19Z"/><path class="cls-1" d="M460.19,37.81l-7.85-27.35a14.35,14.35,0,0,0-5.95-8.07L428.44,61.94l21.84-6.27A14.44,14.44,0,0,0,460.19,37.81Z"/><polygon class="cls-2" points="90.41 99.26 70.73 164.55 107.93 153.88 127.61 88.59 90.41 99.26"/><polygon class="cls-2" points="169.75 76.5 150.07 141.79 187.27 131.12 206.95 65.83 169.75 76.5"/><polygon class="cls-2" points="260.94 50.34 241.26 115.64 278.45 104.97 298.14 39.67 260.94 50.34"/><polygon class="cls-2" points="339.06 27.93 319.38 93.22 356.58 82.55 376.26 17.26 339.06 27.93"/><path class="cls-2" d="M434.47.56,410.93,7.32,391.25,72.61l37.19-10.67L446.39,2.39A14.41,14.41,0,0,0,434.47.56Z"/><path class="cls-2" d="M22.23,118.82,8,166l.4,1.39a14.45,14.45,0,0,0,17.87,9.91l13.47-3.87,19.68-65.29Z"/><polygon class="cls-1" points="148.68 180.19 111.81 237.56 155.65 237.52 192.52 180.15 148.68 180.19"/><polygon class="cls-1" points="231.22 180.11 194.35 237.48 250.51 237.43 287.38 180.06 231.22 180.11"/><polygon class="cls-1" points="326.08 180.03 289.21 237.4 331.79 237.36 368.66 179.99 326.08 180.03"/><polygon class="cls-1" points="407.36 179.96 370.49 237.32 406.55 237.29 443.42 179.92 407.36 179.96"/><polygon class="cls-1" points="77.75 180.25 40.88 237.62 73.11 237.59 109.98 180.22 77.75 180.25"/><path class="cls-1" d="M26.81,180.3a14.43,14.43,0,0,0-14.43,14.45l0,27,26.65-41.46Z"/><path class="cls-1" d="M482.4,222.78l0-28.45a14.45,14.45,0,0,0-3.5-9.4l-33.63,52.33,22.72,0A14.44,14.44,0,0,0,482.4,222.78Z"/><polygon class="cls-2" points="109.98 180.22 73.11 237.59 111.81 237.56 148.68 180.19 109.98 180.22"/><polygon class="cls-2" points="192.52 180.15 155.65 237.52 194.35 237.48 231.22 180.11 192.52 180.15"/><polygon class="cls-2" points="287.38 180.06 250.51 237.43 289.21 237.4 326.08 180.03 287.38 180.06"/><polygon class="cls-2" points="368.66 179.99 331.79 237.36 370.49 237.32 407.36 179.96 368.66 179.99"/><path class="cls-2" d="M467.92,179.9l-24.5,0-36.87,57.37,38.7,0,33.63-52.33A14.44,14.44,0,0,0,467.92,179.9Z"/><path class="cls-2" d="M39.05,180.29,12.4,221.75v1.45a14.44,14.44,0,0,0,14.46,14.43h14l36.87-57.37Z"/><path class="cls-2" d="M193.44,377.31V317.76a7.14,7.14,0,0,1,10.71-6.19l51.58,29.78,51.58,29.78a7.14,7.14,0,0,1,0,12.37l-51.58,29.78-51.58,29.78a7.14,7.14,0,0,1-10.71-6.19Z"/></g></g></svg>